<svg xmlns="http://www.w3.org/2000/svg" version="1.1" xmlns:xlink="http://www.w3.org/1999/xlink" xmlns:svgjs="http://svgjs.com/svgjs" width="700" height="700"><svg version="1.1" id="SvgjsSvg1000" xmlns="http://www.w3.org/2000/svg" xmlns:xlink="http://www.w3.org/1999/xlink" x="0px" y="0px" viewBox="0 0 700 700" style="enable-background:new 0 0 700 700;" xml:space="preserve">
<style type="text/css">
	.st0{fill-rule:evenodd;clip-rule:evenodd;}
</style>
<g>
	<path class="st0" d="M115.4,367.6c14.3,22.2,31.2,44.3,50.5,64.9c54,57.7,115.7,91.7,184.1,91.7s130-34,184.1-91.7
		c19.3-20.6,36.2-42.8,50.5-64.9c4.1-6.3,7.7-12.2,10.8-17.6c-3.1-5.4-6.7-11.3-10.8-17.6c-14.3-22.2-31.2-44.3-50.5-64.9
		c-54-57.7-115.7-91.7-184.1-91.7s-130,34-184.1,91.7c-19.3,20.6-36.2,42.8-50.5,64.9c-4.1,6.3-7.7,12.2-10.8,17.6
		C107.7,355.4,111.4,361.3,115.4,367.6L115.4,367.6z M54,338.9c3.5-7,10.1-18.7,19.6-33.5c15.8-24.5,34.5-49,56-72
		C192.2,166.6,265.9,126,350,126s157.8,40.6,220.4,107.4c21.5,22.9,40.2,47.4,56,72c9.6,14.8,16.1,26.5,19.6,33.5
		c3.5,7,3.5,15.3,0,22.3c-3.5,7-10.1,18.7-19.6,33.5c-15.8,24.5-34.5,49-56,72C507.8,533.4,434.1,574,350,574
		s-157.8-40.6-220.4-107.4c-21.5-22.9-40.2-47.4-56-72C64,379.8,57.5,368.1,54,361.1C50.5,354.1,50.5,345.9,54,338.9L54,338.9z"></path>
	<path class="st0" d="M350,449.6c-55,0-99.6-44.6-99.6-99.6s44.6-99.6,99.6-99.6s99.6,44.6,99.6,99.6S405,449.6,350,449.6z
		 M350,399.8c27.5,0,49.8-22.3,49.8-49.8s-22.3-49.8-49.8-49.8c-27.5,0-49.8,22.3-49.8,49.8S322.5,399.8,350,399.8z"></path>
</g>
</svg><style>@media (prefers-color-scheme: light) { :root { filter: none; } }
@media (prefers-color-scheme: dark) { :root { filter: invert(100%); } }
</style></svg>